<svg width="62" height="13" viewBox="0 0 62 13" fill="none" xmlns="http://www.w3.org/2000/svg">
<path d="M1.7506 6.18264C1.7506 7.39896 2.68521 8.17082 3.66449 8.17082C4.65839 8.17082 5.57797 7.39896 5.57797 6.18264C5.57797 4.96593 4.65839 4.2087 3.66449 4.2087C2.68521 4.2087 1.7506 4.96593 1.7506 6.18264ZM7.44757 6.18264C7.44757 8.28944 5.94881 9.99569 3.84239 9.99569C3.04102 9.99569 2.32939 9.65444 1.88384 9.16491V12.6221H0V2.47281H1.26116L1.36474 3.52621C1.92891 2.82908 2.80421 2.38384 3.84239 2.38384C5.94881 2.38384 7.44757 4.07544 7.44757 6.18264Z" fill="white"/>
<path d="M18.7153 0.00034523H20.6145V9.89258H18.7153V0.00034523Z" fill="white"/>
<path d="M30.1922 8.9418C30.1922 11.1083 28.7828 12.7256 26.483 12.7256C25.1183 12.7256 23.9911 12.2361 23.1898 11.5682L24.2576 10.4258C24.97 10.7817 25.6374 11.0189 26.483 11.0043C27.5513 11.0043 28.2929 10.4555 28.2929 9.37202V8.89752C27.8185 9.50567 27.0322 9.77258 26.2604 9.77258C24.1094 9.77258 23.0115 8.30359 23.0115 6.1525V2.47233H24.8957V6.04851C24.8957 7.4135 25.5484 7.94772 26.5574 7.94772C27.6256 7.94772 28.308 7.30951 28.308 5.88521V2.47233H30.1922V8.9418Z" fill="white"/>
<path d="M35.0731 9.89258H33.1742V4.29856H32.2103V2.47331H33.1742V0.00034523H35.0731V2.47331H36.0373V4.29856H35.0731V9.89258Z" fill="white"/>
<path d="M39.4274 5.51419H42.825C42.825 5.33626 42.7657 5.09861 42.6471 4.92067C42.3949 4.44577 41.8608 4.08989 41.1488 4.08989C40.1398 4.08989 39.4575 4.80204 39.4274 5.51419ZM44.4128 4.37143C44.7239 5.05393 44.7389 6.06304 44.5314 6.70125H39.3539C39.3539 7.71036 40.1845 8.2592 41.1934 8.2592C41.9644 8.2592 42.7657 8.08127 43.4331 7.74002L44.427 8.82307C43.6264 9.4166 42.5135 9.98047 41.1934 9.98047C38.9384 9.98047 37.4103 8.34817 37.4103 6.18206C37.4103 4.07486 38.8344 2.36823 41.1488 2.36823C42.7365 2.36823 43.8486 3.12507 44.4128 4.37143Z" fill="white"/>
<path d="M52.9217 3.74825L51.7945 4.96536C51.1861 4.40109 50.652 4.20812 49.9996 4.20812C49.0053 4.20812 48.0858 4.96535 48.0858 6.18206C48.0858 7.39837 49.0053 8.15521 49.9996 8.15521C50.652 8.15521 51.1861 7.96224 51.7945 7.39837L52.9217 8.61508C52.2243 9.44625 51.1711 9.98047 49.9996 9.98047C47.8924 9.98047 46.2015 8.28886 46.2015 6.18206C46.2015 4.07486 47.8924 2.38326 49.9996 2.38326C51.1711 2.38326 52.2243 2.91747 52.9217 3.74825Z" fill="white"/>
<path d="M62 5.97515V9.89258H60.1157V6.09378C60.1157 4.71376 59.463 4.19457 58.4687 4.19457C57.3862 4.19457 56.7039 4.83278 56.7039 6.25708V9.89258H54.8196V0.00034523H56.7039V3.24477C57.1783 2.63662 57.9646 2.36931 58.766 2.36931C60.9017 2.36931 62 3.82367 62 5.97515Z" fill="white"/>
<path d="M15.0628 6.27344C15.0715 6.27344 15.079 6.26632 15.079 6.25723C15.079 6.24813 15.0715 6.24101 15.0628 6.24101C15.0537 6.24101 15.0462 6.24813 15.0462 6.25723C15.0462 6.26632 15.0537 6.27344 15.0628 6.27344Z" fill="white"/>
<path d="M14.9914 6.85938C15.0135 6.85938 15.0313 6.84158 15.0313 6.81944C15.0313 6.79729 15.0135 6.7791 14.9914 6.7791C14.9693 6.7791 14.9515 6.79729 14.9515 6.81944C14.9515 6.84158 14.9693 6.85938 14.9914 6.85938Z" fill="white"/>
<path d="M14.7835 7.40625C14.8171 7.40625 14.8448 7.37896 14.8448 7.34496C14.8448 7.31095 14.8171 7.28367 14.7835 7.28367C14.7495 7.28367 14.7218 7.31095 14.7218 7.34496C14.7218 7.37896 14.7495 7.40625 14.7835 7.40625Z" fill="white"/>
<path d="M14.4504 7.88477C14.4955 7.88477 14.5319 7.84839 14.5319 7.80371C14.5319 7.75863 14.4955 7.72225 14.4504 7.72225C14.4058 7.72225 14.3694 7.75863 14.3694 7.80371C14.3694 7.84839 14.4058 7.88477 14.4504 7.88477Z" fill="white"/>
<path d="M14.0148 8.26172C14.0685 8.26172 14.1124 8.21783 14.1124 8.16405C14.1124 8.11027 14.0685 8.06638 14.0148 8.06638C13.9606 8.06638 13.9171 8.11027 13.9171 8.16405C13.9171 8.21783 13.9606 8.26172 14.0148 8.26172Z" fill="white"/>
<path d="M13.5028 8.50586C13.559 8.50586 13.604 8.46039 13.604 8.40424C13.604 8.34809 13.559 8.30301 13.5028 8.30301C13.4467 8.30301 13.4016 8.34809 13.4016 8.40424C13.4016 8.46039 13.4467 8.50586 13.5028 8.50586Z" fill="white"/>
<path d="M12.947 8.61621C13.0051 8.61621 13.0522 8.56916 13.0522 8.51103C13.0522 8.45291 13.0051 8.40585 12.947 8.40585C12.8893 8.40585 12.8422 8.45291 12.8422 8.51103C12.8422 8.56916 12.8893 8.61621 12.947 8.61621Z" fill="white"/>
<path d="M12.3827 8.58105C12.4416 8.58105 12.489 8.53361 12.489 8.47469C12.489 8.41617 12.4416 8.36831 12.3827 8.36831C12.3241 8.36831 12.2763 8.41617 12.2763 8.47469C12.2763 8.53361 12.3241 8.58105 12.3827 8.58105Z" fill="white"/>
<path d="M11.8441 8.41992C11.9102 8.41992 11.9631 8.36654 11.9631 8.3009C11.9631 8.23526 11.9102 8.18188 11.8441 8.18188C11.7785 8.18188 11.7255 8.23526 11.7255 8.3009C11.7255 8.36654 11.7785 8.41992 11.8441 8.41992Z" fill="white"/>
<path d="M11.3669 8.12207C11.4361 8.12207 11.4923 8.06592 11.4923 7.99712C11.4923 7.92792 11.4361 7.87178 11.3669 7.87178C11.2977 7.87178 11.242 7.92792 11.242 7.99712C11.242 8.06592 11.2977 8.12207 11.3669 8.12207Z" fill="white"/>
<path d="M10.9801 7.73535C11.0631 7.73535 11.1304 7.66814 11.1304 7.5851C11.1304 7.50206 11.0631 7.43484 10.9801 7.43484C10.8971 7.43484 10.8299 7.50206 10.8299 7.5851C10.8299 7.66814 10.8971 7.73535 10.9801 7.73535Z" fill="white"/>
<path d="M10.7068 7.26074C10.8017 7.26074 10.8784 7.18404 10.8784 7.08914C10.8784 6.99463 10.8017 6.91792 10.7068 6.91792C10.6123 6.91792 10.5356 6.99463 10.5356 7.08914C10.5356 7.18404 10.6123 7.26074 10.7068 7.26074Z" fill="white"/>
<path d="M10.5667 6.73242C10.6723 6.73242 10.7581 6.64661 10.7581 6.54064C10.7581 6.43506 10.6723 6.34926 10.5667 6.34926C10.4608 6.34926 10.375 6.43506 10.375 6.54064C10.375 6.64661 10.4608 6.73242 10.5667 6.73242Z" fill="white"/>
<path d="M10.5666 6.16797C10.6729 6.16797 10.7591 6.08176 10.7591 5.97539C10.7591 5.86863 10.6729 5.78243 10.5666 5.78243C10.4598 5.78243 10.3737 5.86863 10.3737 5.97539C10.3737 6.08176 10.4598 6.16797 10.5666 6.16797Z" fill="white"/>
<path d="M10.7071 5.62402C10.8158 5.62402 10.9035 5.53585 10.9035 5.4275C10.9035 5.31876 10.8158 5.23058 10.7071 5.23058C10.5987 5.23058 10.5106 5.31876 10.5106 5.4275C10.5106 5.53585 10.5987 5.62402 10.7071 5.62402Z" fill="white"/>
<path d="M10.9799 5.14941C11.1 5.14941 11.1977 5.05214 11.1977 4.93193C11.1977 4.81133 11.1 4.71406 10.9799 4.71406C10.8597 4.71406 10.762 4.81133 10.762 4.93193C10.762 5.05214 10.8597 5.14941 10.9799 5.14941Z" fill="white"/>
<path d="M11.3669 4.75293C11.4961 4.75293 11.6009 4.64815 11.6009 4.51924C11.6009 4.38954 11.4961 4.28475 11.3669 4.28475C11.2376 4.28475 11.1328 4.38954 11.1328 4.51924C11.1328 4.64815 11.2376 4.75293 11.3669 4.75293Z" fill="white"/>
<path d="M11.8445 4.45898C11.9793 4.45898 12.0888 4.34984 12.0888 4.215C12.0888 4.08016 11.9793 3.97064 11.8445 3.97064C11.7101 3.97064 11.6006 4.08016 11.6006 4.215C11.6006 4.34984 11.7101 4.45898 11.8445 4.45898Z" fill="white"/>
<path d="M12.3825 4.29004C12.5201 4.29004 12.6316 4.17813 12.6316 4.04092C12.6316 3.90332 12.5201 3.79141 12.3825 3.79141C12.2449 3.79141 12.1334 3.90332 12.1334 4.04092C12.1334 4.17813 12.2449 4.29004 12.3825 4.29004Z" fill="white"/>
<path d="M12.9472 4.25586C13.0863 4.25586 13.199 4.14317 13.199 4.00438C13.199 3.86519 13.0863 3.75249 12.9472 3.75249C12.8084 3.75249 12.6957 3.86519 12.6957 4.00438C12.6957 4.14317 12.8084 4.25586 12.9472 4.25586Z" fill="white"/>
<path d="M13.5027 4.36621C13.6431 4.36621 13.757 4.25233 13.757 4.11196C13.757 3.97158 13.6431 3.85771 13.5027 3.85771C13.3624 3.85771 13.2485 3.97158 13.2485 4.11196C13.2485 4.25233 13.3624 4.36621 13.5027 4.36621Z" fill="white"/>
<path d="M14.0149 4.60938C14.1572 4.60938 14.2727 4.49391 14.2727 4.35156C14.2727 4.20921 14.1572 4.09374 14.0149 4.09374C13.8726 4.09374 13.7571 4.20921 13.7571 4.35156C13.7571 4.49391 13.8726 4.60938 14.0149 4.60938Z" fill="white"/>
<path d="M14.4506 4.97168C14.5937 4.97168 14.71 4.85542 14.71 4.71228C14.71 4.56914 14.5937 4.45328 14.4506 4.45328C14.3075 4.45328 14.1917 4.56914 14.1917 4.71228C14.1917 4.85542 14.3075 4.97168 14.4506 4.97168Z" fill="white"/>
<path d="M14.7834 5.43359C14.9285 5.43359 15.0459 5.31576 15.0459 5.17064C15.0459 5.02552 14.9285 4.90768 14.7834 4.90768C14.6379 4.90768 14.5205 5.02552 14.5205 5.17064C14.5205 5.31576 14.6379 5.43359 14.7834 5.43359Z" fill="white"/>
<path d="M14.9913 5.97559C15.1455 5.97559 15.2705 5.85064 15.2705 5.69643C15.2705 5.54221 15.1455 5.41726 14.9913 5.41726C14.8372 5.41726 14.7122 5.54221 14.7122 5.69643C14.7122 5.85064 14.8372 5.97559 14.9913 5.97559Z" fill="white"/>
<path d="M15.5146 6.27148C15.5226 6.27148 15.5294 6.26474 15.5294 6.25671C15.5294 6.24869 15.5226 6.24193 15.5146 6.24193C15.5066 6.24193 15.4998 6.24869 15.4998 6.25671C15.4998 6.26474 15.5066 6.27148 15.5146 6.27148Z" fill="white"/>
<path d="M15.4547 6.85352C15.4725 6.85352 15.4871 6.83888 15.4871 6.82069C15.4871 6.8029 15.4725 6.78827 15.4547 6.78827C15.4365 6.78827 15.4219 6.8029 15.4219 6.82069C15.4219 6.83888 15.4365 6.85352 15.4547 6.85352Z" fill="white"/>
<path d="M15.2795 7.41016C15.308 7.41016 15.3309 7.38722 15.3309 7.35875C15.3309 7.33028 15.308 7.30735 15.2795 7.30735C15.2511 7.30735 15.2281 7.33028 15.2281 7.35875C15.2281 7.38722 15.2511 7.41016 15.2795 7.41016Z" fill="white"/>
<path d="M14.9967 7.91895C15.0347 7.91895 15.0655 7.8881 15.0655 7.84975C15.0655 7.81179 15.0347 7.78094 14.9967 7.78094C14.9588 7.78094 14.9279 7.81179 14.9279 7.84975C14.9279 7.8881 14.9588 7.91895 14.9967 7.91895Z" fill="white"/>
<path d="M14.6178 8.34863C14.6613 8.34863 14.6964 8.31344 14.6964 8.26994C14.6964 8.22645 14.6613 8.19086 14.6178 8.19086C14.5743 8.19086 14.5387 8.22645 14.5387 8.26994C14.5387 8.31344 14.5743 8.34863 14.6178 8.34863Z" fill="white"/>
<path d="M14.1596 8.69531C14.2102 8.69531 14.2509 8.6542 14.2509 8.60358C14.2509 8.55336 14.2102 8.51224 14.1596 8.51224C14.1094 8.51224 14.0682 8.55336 14.0682 8.60358C14.0682 8.6542 14.1094 8.69531 14.1596 8.69531Z" fill="white"/>
<path d="M13.6425 8.93262C13.697 8.93262 13.7413 8.88833 13.7413 8.83376C13.7413 8.77919 13.697 8.73491 13.6425 8.73491C13.5879 8.73491 13.5436 8.77919 13.5436 8.83376C13.5436 8.88833 13.5879 8.93262 13.6425 8.93262Z" fill="white"/>
<path d="M13.0885 9.05762C13.1466 9.05762 13.1937 9.01056 13.1937 8.95243C13.1937 8.8943 13.1466 8.84725 13.0885 8.84725C13.0304 8.84725 12.9833 8.8943 12.9833 8.95243C12.9833 9.01056 13.0304 9.05762 13.0885 9.05762Z" fill="white"/>
<path d="M12.5225 9.05859C12.5814 9.05859 12.6288 9.01074 12.6288 8.95222C12.6288 8.8933 12.5814 8.84585 12.5225 8.84585C12.4636 8.84585 12.4161 8.8933 12.4161 8.95222C12.4161 9.01074 12.4636 9.05859 12.5225 9.05859Z" fill="white"/>
<path d="M11.9686 8.95215C12.0338 8.95215 12.0864 8.89916 12.0864 8.83431C12.0864 8.76946 12.0338 8.71648 11.9686 8.71648C11.9037 8.71648 11.8511 8.76946 11.8511 8.83431C11.8511 8.89916 11.9037 8.95215 11.9686 8.95215Z" fill="white"/>
<path d="M11.4514 8.72949C11.5206 8.72949 11.5768 8.67335 11.5768 8.60415C11.5768 8.53534 11.5206 8.47919 11.4514 8.47919C11.3823 8.47919 11.3261 8.53534 11.3261 8.60415C11.3261 8.67335 11.3823 8.72949 11.4514 8.72949Z" fill="white"/>
<path d="M10.9932 8.41602C11.0734 8.41602 11.1387 8.35116 11.1387 8.27089C11.1387 8.19062 11.0734 8.12538 10.9932 8.12538C10.9133 8.12538 10.8481 8.19062 10.8481 8.27089C10.8481 8.35116 10.9133 8.41602 10.9932 8.41602Z" fill="white"/>
<path d="M10.6146 8.01074C10.7031 8.01074 10.7747 7.93877 10.7747 7.8502C10.7747 7.76202 10.7031 7.69005 10.6146 7.69005C10.526 7.69005 10.4545 7.76202 10.4545 7.8502C10.4545 7.93877 10.526 8.01074 10.6146 8.01074Z" fill="white"/>
<path d="M10.3317 7.5459C10.4341 7.5459 10.5171 7.46285 10.5171 7.36044C10.5171 7.25802 10.4341 7.17538 10.3317 7.17538C10.2293 7.17538 10.1467 7.25802 10.1467 7.36044C10.1467 7.46285 10.2293 7.5459 10.3317 7.5459Z" fill="white"/>
<path d="M10.1568 7.00781C10.2596 7.00781 10.343 6.92438 10.343 6.82118C10.343 6.71837 10.2596 6.63493 10.1568 6.63493C10.0536 6.63493 9.97021 6.71837 9.97021 6.82118C9.97021 6.92438 10.0536 7.00781 10.1568 7.00781Z" fill="white"/>
<path d="M10.0974 6.44922C10.2029 6.44922 10.2887 6.36381 10.2887 6.25784C10.2887 6.15226 10.2029 6.06645 10.0974 6.06645C9.99143 6.06645 9.90564 6.15226 9.90564 6.25784C9.90564 6.36381 9.99143 6.44922 10.0974 6.44922Z" fill="white"/>
<path d="M10.1567 5.8877C10.2631 5.8877 10.3493 5.8015 10.3493 5.69513C10.3493 5.58837 10.2631 5.50216 10.1567 5.50216C10.05 5.50216 9.96381 5.58837 9.96381 5.69513C9.96381 5.8015 10.05 5.8877 10.1567 5.8877Z" fill="white"/>
<path d="M10.3313 5.3623C10.4455 5.3623 10.5376 5.26978 10.5376 5.1559C10.5376 5.04162 10.4455 4.94909 10.3313 4.94909C10.217 4.94909 10.1249 5.04162 10.1249 5.1559C10.1249 5.26978 10.217 5.3623 10.3313 5.3623Z" fill="white"/>
<path d="M10.6147 4.88672C10.7365 4.88672 10.835 4.78786 10.835 4.66607C10.835 4.54468 10.7365 4.44582 10.6147 4.44582C10.493 4.44582 10.3945 4.54468 10.3945 4.66607C10.3945 4.78786 10.493 4.88672 10.6147 4.88672Z" fill="white"/>
<path d="M10.9935 4.47461C11.1208 4.47461 11.2239 4.3714 11.2239 4.24408C11.2239 4.11675 11.1208 4.01395 10.9935 4.01395C10.8666 4.01395 10.7634 4.11675 10.7634 4.24408C10.7634 4.3714 10.8666 4.47461 10.9935 4.47461Z" fill="white"/>
<path d="M11.4515 4.14746C11.5815 4.14746 11.6867 4.04189 11.6867 3.91179C11.6867 3.78209 11.5815 3.67652 11.4515 3.67652C11.3214 3.67652 11.2162 3.78209 11.2162 3.91179C11.2162 4.04189 11.3214 4.14746 11.4515 4.14746Z" fill="white"/>
<path d="M11.9686 3.93066C12.1062 3.93066 12.2177 3.81915 12.2177 3.68155C12.2177 3.54394 12.1062 3.43244 11.9686 3.43244C11.831 3.43244 11.7195 3.54394 11.7195 3.68155C11.7195 3.81915 11.831 3.93066 11.9686 3.93066Z" fill="white"/>
<path d="M12.5223 3.81445C12.6607 3.81445 12.7726 3.70255 12.7726 3.56415C12.7726 3.42615 12.6607 3.31385 12.5223 3.31385C12.384 3.31385 12.2721 3.42615 12.2721 3.56415C12.2721 3.70255 12.384 3.81445 12.5223 3.81445Z" fill="white"/>
<path d="M13.0888 3.81543C13.2275 3.81543 13.3402 3.70273 13.3402 3.56354C13.3402 3.42475 13.2275 3.31206 13.0888 3.31206C12.95 3.31206 12.8373 3.42475 12.8373 3.56354C12.8373 3.70273 12.95 3.81543 13.0888 3.81543Z" fill="white"/>
<path d="M13.6425 3.93652C13.7829 3.93652 13.8967 3.82264 13.8967 3.68226C13.8967 3.54189 13.7829 3.42801 13.6425 3.42801C13.5022 3.42801 13.3883 3.54189 13.3883 3.68226C13.3883 3.82264 13.5022 3.93652 13.6425 3.93652Z" fill="white"/>
<path d="M14.1595 4.16895C14.3015 4.16895 14.4161 4.05427 14.4161 3.91232C14.4161 3.77076 14.3015 3.65609 14.1595 3.65609C14.018 3.65609 13.903 3.77076 13.903 3.91232C13.903 4.05427 14.018 4.16895 14.1595 4.16895Z" fill="white"/>
<path d="M14.6177 4.50488C14.7612 4.50488 14.8779 4.38823 14.8779 4.2443C14.8779 4.10076 14.7612 3.98412 14.6177 3.98412C14.4738 3.98412 14.3572 4.10076 14.3572 4.2443C14.3572 4.38823 14.4738 4.50488 14.6177 4.50488Z" fill="white"/>
<path d="M14.9965 4.92969C15.1424 4.92969 15.2606 4.81146 15.2606 4.66555C15.2606 4.52003 15.1424 4.40141 14.9965 4.40141C14.8506 4.40141 14.7324 4.52003 14.7324 4.66555C14.7324 4.81146 14.8506 4.92969 14.9965 4.92969Z" fill="white"/>
<path d="M15.2794 5.42285C15.4265 5.42285 15.5459 5.30343 15.5459 5.15634C15.5459 5.00885 15.4265 4.88943 15.2794 4.88943C15.1323 4.88943 15.0129 5.00885 15.0129 5.15634C15.0129 5.30343 15.1323 5.42285 15.2794 5.42285Z" fill="white"/>
<path d="M15.4547 5.97461C15.6093 5.97461 15.735 5.84887 15.735 5.69426C15.735 5.53926 15.6093 5.41391 15.4547 5.41391C15.2997 5.41391 15.174 5.53926 15.174 5.69426C15.174 5.84887 15.2997 5.97461 15.4547 5.97461Z" fill="white"/>
<path d="M15.9659 6.26953C15.9726 6.26953 15.9777 6.26446 15.9777 6.25771C15.9777 6.25095 15.9726 6.24546 15.9659 6.24546C15.9591 6.24546 15.954 6.25095 15.954 6.25771C15.954 6.26446 15.9591 6.26953 15.9659 6.26953Z" fill="white"/>
<path d="M15.9147 6.85059C15.9297 6.85059 15.942 6.83833 15.942 6.82291C15.942 6.80749 15.9297 6.79523 15.9147 6.79523C15.8993 6.79523 15.887 6.80749 15.887 6.82291C15.887 6.83833 15.8993 6.85059 15.9147 6.85059Z" fill="white"/>
<path d="M15.7636 7.41211C15.7882 7.41211 15.8075 7.39234 15.8075 7.36822C15.8075 7.3441 15.7882 7.32433 15.7636 7.32433C15.7395 7.32433 15.7202 7.3441 15.7202 7.36822C15.7202 7.39234 15.7395 7.41211 15.7636 7.41211Z" fill="white"/>
<path d="M15.518 7.93555C15.5488 7.93555 15.5741 7.91024 15.5741 7.879C15.5741 7.84777 15.5488 7.82286 15.518 7.82286C15.4867 7.82286 15.4614 7.84777 15.4614 7.879C15.4614 7.91024 15.4867 7.93555 15.518 7.93555Z" fill="white"/>
<path d="M15.1847 8.40918C15.225 8.40918 15.2575 8.37676 15.2575 8.33643C15.2575 8.29649 15.225 8.26406 15.1847 8.26406C15.1448 8.26406 15.1124 8.29649 15.1124 8.33643C15.1124 8.37676 15.1448 8.40918 15.1847 8.40918Z" fill="white"/>
<path d="M14.7754 8.81641C14.8236 8.81641 14.8632 8.77726 14.8632 8.72862C14.8632 8.68038 14.8236 8.64124 14.7754 8.64124C14.7268 8.64124 14.6876 8.68038 14.6876 8.72862C14.6876 8.77726 14.7268 8.81641 14.7754 8.81641Z" fill="white"/>
<path d="M14.3029 9.13965C14.3574 9.13965 14.4017 9.09536 14.4017 9.04079C14.4017 8.98583 14.3574 8.94154 14.3029 8.94154C14.2483 8.94154 14.204 8.98583 14.204 9.04079C14.204 9.09536 14.2483 9.13965 14.3029 9.13965Z" fill="white"/>
<path d="M13.7823 9.3623C13.8369 9.3623 13.8811 9.31802 13.8811 9.26345C13.8811 9.20888 13.8369 9.16459 13.7823 9.16459C13.7278 9.16459 13.6835 9.20888 13.6835 9.26345C13.6835 9.31802 13.7278 9.3623 13.7823 9.3623Z" fill="white"/>
<path d="M13.2297 9.49219C13.2862 9.49219 13.3321 9.44632 13.3321 9.38977C13.3321 9.33283 13.2862 9.28696 13.2297 9.28696C13.1728 9.28696 13.1269 9.33283 13.1269 9.38977C13.1269 9.44632 13.1728 9.49219 13.2297 9.49219Z" fill="white"/>
<path d="M12.6642 9.52148C12.7228 9.52148 12.7706 9.47363 12.7706 9.41511C12.7706 9.35619 12.7228 9.30874 12.6642 9.30874C12.6053 9.30874 12.5575 9.35619 12.5575 9.41511C12.5575 9.47363 12.6053 9.52148 12.6642 9.52148Z" fill="white"/>
<path d="M12.1026 9.44922C12.1631 9.44922 12.2125 9.39979 12.2125 9.33889C12.2125 9.2784 12.1631 9.22897 12.1026 9.22897C12.0417 9.22897 11.9923 9.2784 11.9923 9.33889C11.9923 9.39979 12.0417 9.44922 12.1026 9.44922Z" fill="white"/>
<path d="M11.5638 9.28711C11.6314 9.28711 11.6864 9.23215 11.6864 9.16453C11.6864 9.09652 11.6314 9.04195 11.5638 9.04195C11.4962 9.04195 11.4413 9.09652 11.4413 9.16453C11.4413 9.23215 11.4962 9.28711 11.5638 9.28711Z" fill="white"/>
<path d="M11.0647 9.02051C11.1339 9.02051 11.19 8.96476 11.19 8.89556C11.19 8.82636 11.1339 8.77021 11.0647 8.77021C10.9959 8.77021 10.9398 8.82636 10.9398 8.89556C10.9398 8.96476 10.9959 9.02051 11.0647 9.02051Z" fill="white"/>
<path d="M10.622 8.68457C10.7007 8.68457 10.7647 8.62091 10.7647 8.54183C10.7647 8.46314 10.7007 8.39947 10.622 8.39947C10.5434 8.39947 10.4793 8.46314 10.4793 8.54183C10.4793 8.62091 10.5434 8.68457 10.622 8.68457Z" fill="white"/>
<path d="M10.2493 8.27539C10.3378 8.27539 10.4098 8.20342 10.4098 8.11485C10.4098 8.02667 10.3378 7.9547 10.2493 7.9547C10.1611 7.9547 10.0892 8.02667 10.0892 8.11485C10.0892 8.20342 10.1611 8.27539 10.2493 8.27539Z" fill="white"/>
<path d="M9.95875 7.80078C10.0532 7.80078 10.1299 7.72407 10.1299 7.62956C10.1299 7.53466 10.0532 7.45795 9.95875 7.45795C9.86387 7.45795 9.78717 7.53466 9.78717 7.62956C9.78717 7.72407 9.86387 7.80078 9.95875 7.80078Z" fill="white"/>
<path d="M9.75985 7.28516C9.86303 7.28516 9.94645 7.20172 9.94645 7.09852C9.94645 6.99571 9.86303 6.91188 9.75985 6.91188C9.65705 6.91188 9.57324 6.99571 9.57324 7.09852C9.57324 7.20172 9.65705 7.28516 9.75985 7.28516Z" fill="white"/>
<path d="M9.65827 6.7334C9.76422 6.7334 9.85001 6.64759 9.85001 6.54162C9.85001 6.43604 9.76422 6.35024 9.65827 6.35024C9.55271 6.35024 9.46692 6.43604 9.46692 6.54162C9.46692 6.64759 9.55271 6.7334 9.65827 6.7334Z" fill="white"/>
<path d="M9.6586 6.16699C9.76495 6.16699 9.85153 6.08079 9.85153 5.97442C9.85153 5.86765 9.76495 5.78146 9.6586 5.78146C9.55225 5.78146 9.46606 5.86765 9.46606 5.97442C9.46606 6.08079 9.55225 6.16699 9.6586 6.16699Z" fill="white"/>
<path d="M9.75972 5.61328C9.86844 5.61328 9.95621 5.5251 9.95621 5.41676C9.95621 5.30802 9.86844 5.22024 9.75972 5.22024C9.65139 5.22024 9.56323 5.30802 9.56323 5.41676C9.56323 5.5251 9.65139 5.61328 9.75972 5.61328Z" fill="white"/>
<path d="M9.95884 5.09375C10.0727 5.09375 10.1652 5.00122 10.1652 4.88695C10.1652 4.77306 10.0727 4.68053 9.95884 4.68053C9.84459 4.68053 9.75208 4.77306 9.75208 4.88695C9.75208 5.00122 9.84459 5.09375 9.95884 5.09375Z" fill="white"/>
<path d="M10.2492 4.61426C10.3674 4.61426 10.4634 4.51817 10.4634 4.39994C10.4634 4.28171 10.3674 4.18601 10.2492 4.18601C10.1309 4.18601 10.0353 4.28171 10.0353 4.39994C10.0353 4.51817 10.1309 4.61426 10.2492 4.61426Z" fill="white"/>
<path d="M10.6218 4.19727C10.7447 4.19727 10.8447 4.09762 10.8447 3.97425C10.8447 3.85128 10.7447 3.75163 10.6218 3.75163C10.4988 3.75163 10.3992 3.85128 10.3992 3.97425C10.3992 4.09762 10.4988 4.19727 10.6218 4.19727Z" fill="white"/>
<path d="M11.0651 3.85547C11.1952 3.85547 11.3004 3.75029 11.3004 3.6202C11.3004 3.4901 11.1952 3.38491 11.0651 3.38491C10.9355 3.38491 10.8299 3.4901 10.8299 3.6202C10.8299 3.75029 10.9355 3.85547 11.0651 3.85547Z" fill="white"/>
<path d="M11.5636 3.5957C11.6984 3.5957 11.8075 3.48657 11.8075 3.35173C11.8075 3.21689 11.6984 3.10775 11.5636 3.10775C11.4288 3.10775 11.3196 3.21689 11.3196 3.35173C11.3196 3.48657 11.4288 3.5957 11.5636 3.5957Z" fill="white"/>
<path d="M12.1029 3.42578C12.2405 3.42578 12.352 3.31428 12.352 3.17667C12.352 3.03907 12.2405 2.92756 12.1029 2.92756C11.9653 2.92756 11.8538 3.03907 11.8538 3.17667C11.8538 3.31428 11.9653 3.42578 12.1029 3.42578Z" fill="white"/>
<path d="M12.6639 3.35156C12.8019 3.35156 12.9142 3.23966 12.9142 3.10126C12.9142 2.96286 12.8019 2.85096 12.6639 2.85096C12.5256 2.85096 12.4133 2.96286 12.4133 3.10126C12.4133 3.23966 12.5256 3.35156 12.6639 3.35156Z" fill="white"/>
<path d="M13.2299 3.37891C13.3694 3.37891 13.4825 3.26582 13.4825 3.12584C13.4825 2.98626 13.3694 2.87316 13.2299 2.87316C13.0903 2.87316 12.9769 2.98626 12.9769 3.12584C12.9769 3.26582 13.0903 3.37891 13.2299 3.37891Z" fill="white"/>
<path d="M13.7823 3.50684C13.9227 3.50684 14.0362 3.39296 14.0362 3.25258C14.0362 3.11221 13.9227 2.99873 13.7823 2.99873C13.642 2.99873 13.5281 3.11221 13.5281 3.25258C13.5281 3.39296 13.642 3.50684 13.7823 3.50684Z" fill="white"/>
<path d="M14.3028 3.73145C14.4448 3.73145 14.5594 3.61677 14.5594 3.47482C14.5594 3.33326 14.4448 3.21819 14.3028 3.21819C14.1613 3.21819 14.0463 3.33326 14.0463 3.47482C14.0463 3.61677 14.1613 3.73145 14.3028 3.73145Z" fill="white"/>
<path d="M14.7754 4.0459C14.9185 4.0459 15.0344 3.93004 15.0344 3.7869C15.0344 3.64375 14.9185 3.5275 14.7754 3.5275C14.6323 3.5275 14.5165 3.64375 14.5165 3.7869C14.5165 3.93004 14.6323 4.0459 14.7754 4.0459Z" fill="white"/>
<path d="M15.1849 4.43848C15.3289 4.43848 15.4455 4.32182 15.4455 4.17829C15.4455 4.03435 15.3289 3.91771 15.1849 3.91771C15.0414 3.91771 14.9248 4.03435 14.9248 4.17829C14.9248 4.32182 15.0414 4.43848 15.1849 4.43848Z" fill="white"/>
<path d="M15.5182 4.90527C15.666 4.90527 15.7858 4.78546 15.7858 4.63757C15.7858 4.48969 15.666 4.36948 15.5182 4.36948C15.3703 4.36948 15.2501 4.48969 15.2501 4.63757C15.2501 4.78546 15.3703 4.90527 15.5182 4.90527Z" fill="white"/>
<path d="M15.7638 5.41797C15.9132 5.41797 16.0342 5.29657 16.0342 5.1475C16.0342 4.99803 15.9132 4.87704 15.7638 4.87704C15.6147 4.87704 15.4933 4.99803 15.4933 5.1475C15.4933 5.29657 15.6147 5.41797 15.7638 5.41797Z" fill="white"/>
<path d="M15.9144 5.97461C16.0698 5.97461 16.1959 5.84848 16.1959 5.69307C16.1959 5.53728 16.0698 5.41153 15.9144 5.41153C15.7586 5.41153 15.6325 5.53728 15.6325 5.69307C15.6325 5.84848 15.7586 5.97461 15.9144 5.97461Z" fill="white"/>
<path d="M16.3726 6.83496C16.3793 6.83496 16.3848 6.82947 16.3848 6.82314C16.3848 6.81638 16.3793 6.81089 16.3726 6.81089C16.3658 6.81089 16.3608 6.81638 16.3608 6.82314C16.3608 6.82947 16.3658 6.83496 16.3726 6.83496Z" fill="white"/>
<path d="M16.2402 7.41699C16.2635 7.41699 16.2825 7.39801 16.2825 7.37428C16.2825 7.35095 16.2635 7.33197 16.2402 7.33197C16.2165 7.33197 16.1975 7.35095 16.1975 7.37428C16.1975 7.39801 16.2165 7.41699 16.2402 7.41699Z" fill="white"/>
<path d="M16.0227 7.93848C16.0456 7.93848 16.0642 7.91989 16.0642 7.89735C16.0642 7.87442 16.0456 7.85583 16.0227 7.85583C15.9998 7.85583 15.9816 7.87442 15.9816 7.89735C15.9816 7.91989 15.9998 7.93848 16.0227 7.93848Z" fill="white"/>
<path d="M15.7268 8.4375C15.758 8.4375 15.7833 8.4122 15.7833 8.38135C15.7833 8.35012 15.758 8.32481 15.7268 8.32481C15.696 8.32481 15.6707 8.35012 15.6707 8.38135C15.6707 8.4122 15.696 8.4375 15.7268 8.4375Z" fill="white"/>
<path d="M15.3589 8.89355C15.4036 8.89355 15.44 8.85718 15.44 8.81211C15.44 8.76742 15.4036 8.73104 15.3589 8.73104C15.3138 8.73104 15.2775 8.76742 15.2775 8.81211C15.2775 8.85718 15.3138 8.89355 15.3589 8.89355Z" fill="white"/>
<path d="M14.9284 9.26855C14.9774 9.26855 15.0169 9.22862 15.0169 9.17959C15.0169 9.13055 14.9774 9.09062 14.9284 9.09062C14.879 9.09062 14.8394 9.13055 14.8394 9.17959C14.8394 9.22862 14.879 9.26855 14.9284 9.26855Z" fill="white"/>
<path d="M14.4449 9.5752C14.4995 9.5752 14.5437 9.53091 14.5437 9.47634C14.5437 9.42177 14.4995 9.37749 14.4449 9.37749C14.3903 9.37749 14.3461 9.42177 14.3461 9.47634C14.3461 9.53091 14.3903 9.5752 14.4449 9.5752Z" fill="white"/>
<path d="M13.9215 9.79297C13.9764 9.79297 14.0215 9.74789 14.0215 9.69293C14.0215 9.63757 13.9764 9.5925 13.9215 9.5925C13.8661 9.5925 13.821 9.63757 13.821 9.69293C13.821 9.74789 13.8661 9.79297 13.9215 9.79297Z" fill="white"/>
<path d="M13.3708 9.93066C13.4289 9.93066 13.4759 9.88361 13.4759 9.82549C13.4759 9.76736 13.4289 9.72031 13.3708 9.72031C13.3127 9.72031 13.2656 9.76736 13.2656 9.82549C13.2656 9.88361 13.3127 9.93066 13.3708 9.93066Z" fill="white"/>
<path d="M12.8055 9.97559C12.8637 9.97559 12.9107 9.92852 12.9107 9.8704C12.9107 9.81227 12.8637 9.76522 12.8055 9.76522C12.7474 9.76522 12.7004 9.81227 12.7004 9.8704C12.7004 9.92852 12.7474 9.97559 12.8055 9.97559Z" fill="white"/>
<path d="M12.2404 9.93164C12.2993 9.93164 12.3468 9.88419 12.3468 9.82527C12.3468 9.76675 12.2993 9.71891 12.2404 9.71891C12.1819 9.71891 12.1341 9.76675 12.1341 9.82527C12.1341 9.88419 12.1819 9.93164 12.2404 9.93164Z" fill="white"/>
<path d="M11.6898 9.80957C11.7538 9.80957 11.806 9.75737 11.806 9.69331C11.806 9.62886 11.7538 9.57666 11.6898 9.57666C11.6253 9.57666 11.5731 9.62886 11.5731 9.69331C11.5731 9.75737 11.6253 9.80957 11.6898 9.80957Z" fill="white"/>
<path d="M11.166 9.60059C11.2348 9.60059 11.291 9.54443 11.291 9.47523C11.291 9.40603 11.2348 9.35028 11.166 9.35028C11.0969 9.35028 11.0407 9.40603 11.0407 9.47523C11.0407 9.54443 11.0969 9.60059 11.166 9.60059Z" fill="white"/>
<path d="M10.6831 9.31445C10.7578 9.31445 10.8183 9.25395 10.8183 9.17921C10.8183 9.10448 10.7578 9.04398 10.6831 9.04398C10.6087 9.04398 10.5479 9.10448 10.5479 9.17921C10.5479 9.25395 10.6087 9.31445 10.6831 9.31445Z" fill="white"/>
<path d="M10.2525 8.96191C10.3352 8.96191 10.4024 8.8947 10.4024 8.81166C10.4024 8.72902 10.3352 8.6614 10.2525 8.6614C10.1695 8.6614 10.1023 8.72902 10.1023 8.81166C10.1023 8.8947 10.1695 8.96191 10.2525 8.96191Z" fill="white"/>
<path d="M9.88417 8.55273C9.97865 8.55273 10.0557 8.47602 10.0557 8.38151C10.0557 8.28661 9.97865 8.2099 9.88417 8.2099C9.78928 8.2099 9.71259 8.28661 9.71259 8.38151C9.71259 8.47602 9.78928 8.55273 9.88417 8.55273Z" fill="white"/>
<path d="M9.58839 8.06836C9.68288 8.06836 9.75997 7.99164 9.75997 7.89714C9.75997 7.80224 9.68288 7.72552 9.58839 7.72552C9.49351 7.72552 9.41681 7.80224 9.41681 7.89714C9.41681 7.99164 9.49351 8.06836 9.58839 8.06836Z" fill="white"/>
<path d="M9.37108 7.56055C9.47427 7.56055 9.55769 7.47711 9.55769 7.37391C9.55769 7.2711 9.47427 7.18767 9.37108 7.18767C9.26829 7.18767 9.18488 7.2711 9.18488 7.37391C9.18488 7.47711 9.26829 7.56055 9.37108 7.56055Z" fill="white"/>
<path d="M9.23904 7.00879C9.34183 7.00879 9.42564 6.92536 9.42564 6.82255C9.42564 6.71934 9.34183 6.63591 9.23904 6.63591C9.13585 6.63591 9.05243 6.71934 9.05243 6.82255C9.05243 6.92536 9.13585 7.00879 9.23904 7.00879Z" fill="white"/>
<path d="M9.19419 6.44727C9.29936 6.44727 9.38475 6.36225 9.38475 6.25707C9.38475 6.15188 9.29936 6.06687 9.19419 6.06687C9.08943 6.06687 9.00403 6.15188 9.00403 6.25707C9.00403 6.36225 9.08943 6.44727 9.19419 6.44727Z" fill="white"/>
<path d="M9.23913 5.88672C9.34548 5.88672 9.43167 5.80013 9.43167 5.69376C9.43167 5.58739 9.34548 5.50118 9.23913 5.50118C9.13279 5.50118 9.0462 5.58739 9.0462 5.69376C9.0462 5.80013 9.13279 5.88672 9.23913 5.88672Z" fill="white"/>
<path d="M9.37126 5.34082C9.48077 5.34082 9.56933 5.25225 9.56933 5.14271C9.56933 5.03358 9.48077 4.945 9.37126 4.945C9.26214 4.945 9.17358 5.03358 9.17358 5.14271C9.17358 5.25225 9.26214 5.34082 9.37126 5.34082Z" fill="white"/>
<path d="M9.58805 4.8252C9.70191 4.8252 9.79442 4.73267 9.79442 4.61839C9.79442 4.50451 9.70191 4.41198 9.58805 4.41198C9.4738 4.41198 9.38129 4.50451 9.38129 4.61839C9.38129 4.73267 9.4738 4.8252 9.58805 4.8252Z" fill="white"/>
<path d="M9.88425 4.34375C9.99969 4.34375 10.0934 4.25004 10.0934 4.13458C10.0934 4.01912 9.99969 3.9258 9.88425 3.9258C9.76881 3.9258 9.67511 4.01912 9.67511 4.13458C9.67511 4.25004 9.76881 4.34375 9.88425 4.34375Z" fill="white"/>
<path d="M10.2525 3.92676C10.3754 3.92676 10.475 3.82711 10.475 3.70374C10.475 3.58076 10.3754 3.48112 10.2525 3.48112C10.1291 3.48112 10.0295 3.58076 10.0295 3.70374C10.0295 3.82711 10.1291 3.92676 10.2525 3.92676Z" fill="white"/>
<path d="M10.6829 3.56934C10.8118 3.56934 10.9158 3.46494 10.9158 3.33643C10.9158 3.20752 10.8118 3.10353 10.6829 3.10353C10.5544 3.10353 10.4504 3.20752 10.4504 3.33643C10.4504 3.46494 10.5544 3.56934 10.6829 3.56934Z" fill="white"/>
<path d="M11.1663 3.27832C11.298 3.27832 11.4051 3.17156 11.4051 3.03948C11.4051 2.90741 11.298 2.80026 11.1663 2.80026C11.0343 2.80026 10.9271 2.90741 10.9271 3.03948C10.9271 3.17156 11.0343 3.27832 11.1663 3.27832Z" fill="white"/>
<path d="M11.6898 3.06738C11.8242 3.06738 11.9337 2.95784 11.9337 2.82301C11.9337 2.68817 11.8242 2.57903 11.6898 2.57903C11.555 2.57903 11.4455 2.68817 11.4455 2.82301C11.4455 2.95784 11.555 3.06738 11.6898 3.06738Z" fill="white"/>
<path d="M12.2407 2.94141C12.3791 2.94141 12.491 2.82911 12.491 2.69111C12.491 2.55271 12.3791 2.44081 12.2407 2.44081C12.1028 2.44081 11.9905 2.55271 11.9905 2.69111C11.9905 2.82911 12.1028 2.94141 12.2407 2.94141Z" fill="white"/>
<path d="M12.8058 2.89844C12.945 2.89844 13.0573 2.78574 13.0573 2.64655C13.0573 2.50776 12.945 2.39507 12.8058 2.39507C12.6671 2.39507 12.5544 2.50776 12.5544 2.64655C12.5544 2.78574 12.6671 2.89844 12.8058 2.89844Z" fill="white"/>
<path d="M13.3703 2.94238C13.5091 2.94238 13.6218 2.82969 13.6218 2.6909C13.6218 2.55171 13.5091 2.43901 13.3703 2.43901C13.2312 2.43901 13.1189 2.55171 13.1189 2.6909C13.1189 2.82969 13.2312 2.94238 13.3703 2.94238Z" fill="white"/>
<path d="M13.9216 3.07617C14.0612 3.07617 14.1742 2.96268 14.1742 2.8231C14.1742 2.68351 14.0612 2.57043 13.9216 2.57043C13.7816 2.57043 13.6686 2.68351 13.6686 2.8231C13.6686 2.96268 13.7816 3.07617 13.9216 3.07617Z" fill="white"/>
<path d="M14.4449 3.29395C14.5853 3.29395 14.6988 3.18006 14.6988 3.03968C14.6988 2.89931 14.5853 2.78543 14.4449 2.78543C14.3046 2.78543 14.1907 2.89931 14.1907 3.03968C14.1907 3.18006 14.3046 3.29395 14.4449 3.29395Z" fill="white"/>
<path d="M14.9285 3.59375C15.0708 3.59375 15.1862 3.47829 15.1862 3.33594C15.1862 3.19319 15.0708 3.07773 14.9285 3.07773C14.7861 3.07773 14.6703 3.19319 14.6703 3.33594C14.6703 3.47829 14.7861 3.59375 14.9285 3.59375Z" fill="white"/>
<path d="M15.3589 3.96387C15.5024 3.96387 15.6191 3.84721 15.6191 3.70328C15.6191 3.55974 15.5024 3.4431 15.3589 3.4431C15.215 3.4431 15.0984 3.55974 15.0984 3.70328C15.0984 3.84721 15.215 3.96387 15.3589 3.96387Z" fill="white"/>
<path d="M15.7268 4.39844C15.8723 4.39844 15.9897 4.28061 15.9897 4.13549C15.9897 3.99037 15.8723 3.87253 15.7268 3.87253C15.5817 3.87253 15.4643 3.99037 15.4643 4.13549C15.4643 4.28061 15.5817 4.39844 15.7268 4.39844Z" fill="white"/>
<path d="M16.0232 4.8877C16.1726 4.8877 16.2936 4.7667 16.2936 4.61723C16.2936 4.46816 16.1726 4.34676 16.0232 4.34676C15.8741 4.34676 15.7527 4.46816 15.7527 4.61723C15.7527 4.7667 15.8741 4.8877 16.0232 4.8877Z" fill="white"/>
<path d="M16.2396 5.41797C16.3922 5.41797 16.516 5.2942 16.516 5.14117C16.516 4.98854 16.3922 4.86478 16.2396 4.86478C16.0866 4.86478 15.9629 4.98854 15.9629 5.14117C15.9629 5.2942 16.0866 5.41797 16.2396 5.41797Z" fill="white"/>
<path d="M16.3722 5.97754C16.5291 5.97754 16.6564 5.85022 16.6564 5.69323C16.6564 5.53625 16.5291 5.40893 16.3722 5.40893C16.2152 5.40893 16.0883 5.53625 16.0883 5.69323C16.0883 5.85022 16.2152 5.97754 16.3722 5.97754Z" fill="white"/>
<path d="M16.6829 6.24125C16.6829 6.77309 16.2515 7.2041 15.7202 7.2041C15.1884 7.2041 14.7575 6.77309 14.7575 6.24125C14.7575 5.70941 15.1884 5.27841 15.7202 5.27841C16.2515 5.27841 16.6829 5.70941 16.6829 6.24125Z" fill="white"/>
</svg>
